<?xml version="1.0" encoding="utf-8"?>
<!-- Generator: Adobe Illustrator 15.0.0, SVG Export Plug-In . SVG Version: 6.00 Build 0)  -->
<!DOCTYPE svg PUBLIC "-//W3C//DTD SVG 1.1//EN" "http://www.w3.org/Graphics/SVG/1.1/DTD/svg11.dtd">
<svg version="1.1" id="Studdr" xmlns="http://www.w3.org/2000/svg" xmlns:xlink="http://www.w3.org/1999/xlink" x="0px" y="0px"
	 width="792px" height="612px" viewBox="0 0 792 612" enable-background="new 0 0 792 612" xml:space="preserve">
<g>
	<path stroke="#000000" stroke-miterlimit="10" d="M245.697,255.43c-3.003,0.477-5.986-0.203-8.376-2.709
		c5.119-3.892,8.617-11.565,8.725-17.932c0.115-6.751-3.534-12.328-13.479-10.747c-10.321,1.641-17.555,8.946-17.734,19.556
		c-0.512,30.286,41.679,25.312,40.952,68.329c-0.46,27.201-20.273,47.855-50.484,52.658c-15.012,2.386-41.414,3.311-40.944-24.467
		c0.307-18.134,13.606-29.866,28.055-32.163c8.444-1.341,13.649,0.718,15.032,7.423c-15.221,3.767-22.087,11.398-22.313,24.71
		c-0.218,12.923,9.445,16.968,18.264,15.566c14.825-2.356,20.867-16.593,21.108-30.868c0.613-36.265-39.784-37.731-39.298-66.475
		c0.343-20.255,22.937-39.43,45.266-42.979c9.945-1.581,31.499-3.468,31.134,18.138C261.416,244.466,255.455,253.878,245.697,255.43
		z"/>
	<path stroke="#000000" stroke-miterlimit="10" d="M574.129,183.813c6.479-1.03,10.037,2.941,9.933,9.114
		c-0.143,8.448-7.438,20.462-19.581,30.331c-1.097-0.474-1.398-1.236-1.384-2.048l7.935-12.602c0.017-0.975-0.6-1.849-1.849-2.46
		c-3.909-1.809-6.857-4.582-6.78-9.13C562.506,190.845,567.651,184.843,574.129,183.813z"/>
	<path stroke="#000000" stroke-miterlimit="10" d="M631.281,214.91l-1.874,8.398c5.765-5.453,12.146-10.031,18.782-11.086
		c7.111-1.13,11.307,2.415,11.201,8.589c-0.096,5.685-4.322,13.324-12.064,14.554c-8.851,1.407-4.244-10.019-8.985-9.265
		s-7.298,2.942-10.99,6.931l-14.193,65.767l-22.754,3.617l18.122-83.889L631.281,214.91z"/>
</g>
<path stroke="#000000" stroke-miterlimit="10" d="M562.763,277.807c-6.408,6.203-14.779,16.606-21.101,17.611
	c-6.163,0.979-7.859-1.181-7.8-4.755c0.028-1.625,0.532-3.487,0.878-5.324l19.498-90.587l-23.441,6.966l-7.52,34.57
	c-2.803-1.984-6.727-2.981-10.519-2.378c-31.604,5.023-41.966,40.045-42.439,67.988c-0.005,0.333-0.004,0.67,0,1.005
	c-3.082,2.734-6.104,4.825-8.76,5.248c-6.163,0.979-7.86-1.182-7.8-4.756c0.028-1.625,0.532-3.487,0.878-5.324l19.497-90.587
	l-23.44,6.966l-7.52,34.57c-2.803-1.984-6.727-2.981-10.519-2.378c-31.604,5.023-41.967,40.045-42.44,67.987
	c-0.006,0.405-0.002,0.812,0.007,1.22c-2.979,2.603-5.889,4.576-8.46,4.985c-6.321,1.005-7.857-1.345-7.796-4.917
	c0.024-1.464,0.37-3.301,0.716-5.138l12.312-57.042l-22.755,3.617l-12.311,57.042c-0.508,2.025-0.854,3.861-1.04,5.511
	c-4.005,3.878-8,7.105-11.317,7.632c-6.321,1.006-7.858-1.344-7.798-4.916c0.025-1.464,0.371-3.301,0.718-5.138l12.311-57.042
	l-22.754,3.617l-12.312,57.042c-0.252,1.174-0.446,2.28-0.61,3.354c-4.732,4.852-9.696,9.464-13.798,10.115
	c-6.321,1.005-7.861-1.182-7.798-4.917c0.014-0.812-0.116-2.411,11.655-55.48l9.481-1.507l1.374-6.698l-9.48,1.506
	c3.25-15.098,5.806-26.522,5.806-26.522l-23.442,6.967l-5.12,23.172l-5.215,0.829l-1.374,6.698l5.214-0.829
	c-2.922,14.398-11.722,50.145-11.867,58.755c-0.207,12.183,7.128,16.527,19.295,14.593c7.365-1.17,16.833-10.368,24.84-19.424
	c0.691,10.519,7.99,14.206,19.403,12.392c6.794-1.079,15.437-8.934,22.985-17.263c1.263,9.196,8.46,12.266,19.206,10.557
	c6.185-0.982,13.852-7.626,20.892-15.091c1.968,6.567,7.212,11.596,18.277,9.837c9.639-1.531,16.863-9.322,21.717-16.737
	c1.91,8.122,8.64,10.942,18.911,9.309c6.256-0.993,14.029-7.782,21.136-15.354c1.919,6.672,7.156,11.828,18.34,10.051
	c9.639-1.532,16.862-9.322,21.716-16.737c1.911,8.122,8.64,10.941,18.912,9.31c12.325-1.96,30.546-26.404,37.942-35.032
	L562.763,277.807z M431.883,301.688c-0.507,2.024-0.853,3.861-1.038,5.51c-3.08,5.026-6.617,9.153-10.251,9.731
	c-3.951,0.628-9.136-0.33-8.97-10.077c0.374-22.094,10.29-49.431,22.143-51.314c2.211-0.352,5.204-0.179,7.693,1.694
	L431.883,301.688z M511.985,288.956c-0.506,2.025-0.853,3.862-1.037,5.511c-3.079,5.026-6.618,9.153-10.252,9.73
	c-3.949,0.628-9.134-0.33-8.97-10.077c0.374-22.094,10.291-49.43,22.143-51.314c2.213-0.352,5.204-0.18,7.693,1.694L511.985,288.956
	z"/>
</svg>
